<svg width="326" height="285" viewBox="0 0 326 285" fill="none" xmlns="http://www.w3.org/2000/svg">
<path d="M114.107 87.3594V194H99.8981L46.2115 111.749V194H32.0758V87.3594H46.2115L100.118 169.83V87.3594H114.107ZM215.211 158.111V169.244H138.16V161.261L185.914 87.3594H196.973L185.108 108.746L153.541 158.111H215.211ZM200.342 87.3594V194H186.793V87.3594H200.342ZM272.955 177.813L304.376 87.3594H319.683L280.206 194H269.293L272.955 177.813ZM243.585 87.3594L274.713 177.813L278.594 194H267.681L228.277 87.3594H243.585Z" fill="#838383"/>
<path d="M94.4092 87.3594V194H80.2002L26.5137 111.749V194H12.3779V87.3594H26.5137L80.4199 169.83V87.3594H94.4092ZM195.513 158.111V169.244H118.462V161.261L166.216 87.3594H177.275L165.41 108.746L133.843 158.111H195.513ZM180.645 87.3594V194H167.095V87.3594H180.645ZM253.257 177.813L284.678 87.3594H299.985L260.508 194H249.595L253.257 177.813ZM223.887 87.3594L255.015 177.813L258.896 194H247.983L208.579 87.3594H223.887Z" fill="white"/>
<path d="M105.243 87.3594H106.243V86.3594H105.243V87.3594ZM105.243 194V195H106.243V194H105.243ZM91.0341 194L90.1967 194.547L90.4926 195H91.0341V194ZM37.3475 111.749L38.1849 111.202L36.3475 108.387V111.749H37.3475ZM37.3475 194V195H38.3475V194H37.3475ZM23.2118 194H22.2118V195H23.2118V194ZM23.2118 87.3594V86.3594H22.2118V87.3594H23.2118ZM37.3475 87.3594L38.1846 86.8122L37.8886 86.3594H37.3475V87.3594ZM91.2538 169.83L90.4167 170.377L92.2538 173.188V169.83H91.2538ZM91.2538 87.3594V86.3594H90.2538V87.3594H91.2538ZM104.243 87.3594V194H106.243V87.3594H104.243ZM105.243 193H91.0341V195H105.243V193ZM91.8715 193.453L38.1849 111.202L36.5101 112.296L90.1967 194.547L91.8715 193.453ZM36.3475 111.749V194H38.3475V111.749H36.3475ZM37.3475 193H23.2118V195H37.3475V193ZM24.2118 194V87.3594H22.2118V194H24.2118ZM23.2118 88.3594H37.3475V86.3594H23.2118V88.3594ZM36.5105 87.9065L90.4167 170.377L92.0908 169.283L38.1846 86.8122L36.5105 87.9065ZM92.2538 169.83V87.3594H90.2538V169.83H92.2538ZM91.2538 88.3594H105.243V86.3594H91.2538V88.3594ZM206.347 158.111H207.347V157.111H206.347V158.111ZM206.347 169.244V170.244H207.347V169.244H206.347ZM129.296 169.244H128.296V170.244H129.296V169.244ZM129.296 161.261L128.456 160.718L128.296 160.966V161.261H129.296ZM177.05 87.3594V86.3594H176.505L176.21 86.8166L177.05 87.3594ZM188.109 87.3594L188.984 87.8445L189.808 86.3594H188.109V87.3594ZM176.244 108.746L177.086 109.285L177.103 109.259L177.118 109.231L176.244 108.746ZM144.677 158.111L143.834 157.573L142.85 159.111H144.677V158.111ZM191.478 87.3594H192.478V86.3594H191.478V87.3594ZM191.478 194V195H192.478V194H191.478ZM177.929 194H176.929V195H177.929V194ZM177.929 87.3594V86.3594H176.929V87.3594H177.929ZM205.347 158.111V169.244H207.347V158.111H205.347ZM206.347 168.244H129.296V170.244H206.347V168.244ZM130.296 169.244V161.261H128.296V169.244H130.296ZM130.136 161.803L177.89 87.9021L176.21 86.8166L128.456 160.718L130.136 161.803ZM177.05 88.3594H188.109V86.3594H177.05V88.3594ZM187.235 86.8742L175.37 108.261L177.118 109.231L188.984 87.8445L187.235 86.8742ZM175.402 108.207L143.834 157.573L145.519 158.65L177.086 109.285L175.402 108.207ZM144.677 159.111H206.347V157.111H144.677V159.111ZM190.478 87.3594V194H192.478V87.3594H190.478ZM191.478 193H177.929V195H191.478V193ZM178.929 194V87.3594H176.929V194H178.929ZM177.929 88.3594H191.478V86.3594H177.929V88.3594ZM264.091 177.813L263.146 177.485L263.128 177.538L263.115 177.593L264.091 177.813ZM295.512 87.3594V86.3594H294.8L294.567 87.0312L295.512 87.3594ZM310.819 87.3594L311.757 87.7065L312.256 86.3594H310.819V87.3594ZM271.342 194V195H272.038L272.279 194.347L271.342 194ZM260.429 194L259.453 193.779L259.177 195H260.429V194ZM234.721 87.3594L235.666 87.034L235.434 86.3594H234.721V87.3594ZM265.849 177.813L266.821 177.58L266.81 177.534L266.794 177.488L265.849 177.813ZM269.73 194V195H270.999L270.703 193.767L269.73 194ZM258.817 194L257.879 194.347L258.121 195H258.817V194ZM219.413 87.3594V86.3594H217.977L218.475 87.706L219.413 87.3594ZM265.035 178.142L296.456 87.6875L294.567 87.0312L263.146 177.485L265.035 178.142ZM295.512 88.3594H310.819V86.3594H295.512V88.3594ZM309.881 87.0122L270.404 193.653L272.279 194.347L311.757 87.7065L309.881 87.0122ZM271.342 193H260.429V195H271.342V193ZM261.404 194.221L265.066 178.034L263.115 177.593L259.453 193.779L261.404 194.221ZM233.775 87.6848L264.903 178.139L266.794 177.488L235.666 87.034L233.775 87.6848ZM264.876 178.047L268.758 194.233L270.703 193.767L266.821 177.58L264.876 178.047ZM269.73 193H258.817V195H269.73V193ZM259.755 193.653L220.351 87.0128L218.475 87.706L257.879 194.347L259.755 193.653ZM219.413 88.3594H234.721V86.3594H219.413V88.3594Z" fill="white"/>
</svg>
