<svg width="1140" height="290" viewBox="0 0 1140 290" fill="none" xmlns="http://www.w3.org/2000/svg">
<g clip-path="url(#clip0_101_9)">
<path d="M80.418 -33.6426H23.4355V-56.6406H80.418C91.4531 -56.6406 100.389 -58.3984 107.225 -61.9141C114.061 -65.4297 119.041 -70.3125 122.166 -76.5625C125.389 -82.8125 127 -89.9414 127 -97.9492C127 -105.273 125.389 -112.158 122.166 -118.604C119.041 -125.049 114.061 -130.225 107.225 -134.131C100.389 -138.135 91.4531 -140.137 80.418 -140.137H30.0273V50H1.75586V-163.281H80.418C96.5312 -163.281 110.154 -160.498 121.287 -154.932C132.42 -149.365 140.867 -141.65 146.629 -131.787C152.391 -122.021 155.271 -110.84 155.271 -98.2422C155.271 -84.5703 152.391 -72.9004 146.629 -63.2324C140.867 -53.5645 132.42 -46.1914 121.287 -41.1133C110.154 -36.1328 96.5312 -33.6426 80.418 -33.6426ZM330.32 -71.582V-48.584H214.891V-71.582H330.32ZM219.285 -163.281V50H191.014V-163.281H219.285ZM354.93 -163.281V50H326.805V-163.281H354.93ZM483.836 -33.6426H426.854V-56.6406H483.836C494.871 -56.6406 503.807 -58.3984 510.643 -61.9141C517.479 -65.4297 522.459 -70.3125 525.584 -76.5625C528.807 -82.8125 530.418 -89.9414 530.418 -97.9492C530.418 -105.273 528.807 -112.158 525.584 -118.604C522.459 -125.049 517.479 -130.225 510.643 -134.131C503.807 -138.135 494.871 -140.137 483.836 -140.137H433.445V50H405.174V-163.281H483.836C499.949 -163.281 513.572 -160.498 524.705 -154.932C535.838 -149.365 544.285 -141.65 550.047 -131.787C555.809 -122.021 558.689 -110.84 558.689 -98.2422C558.689 -84.5703 555.809 -72.9004 550.047 -63.2324C544.285 -53.5645 535.838 -46.1914 524.705 -41.1133C513.572 -36.1328 499.949 -33.6426 483.836 -33.6426Z" fill="white"/>
<path d="M583.258 -12.2559V-163.281H611.383V-12.2559C611.383 1.80664 608.502 13.6719 602.74 23.3398C596.979 33.0078 589.02 40.3809 578.863 45.459C568.805 50.4395 557.232 52.9297 544.146 52.9297C531.061 52.9297 519.439 50.6836 509.283 46.1914C499.127 41.6992 491.168 34.8633 485.406 25.6836C479.645 16.5039 476.764 4.93164 476.764 -9.0332H505.035C505.035 -0.0488281 506.695 7.32422 510.016 13.0859C513.336 18.8477 517.926 23.0957 523.785 25.8301C529.742 28.5645 536.529 29.9316 544.146 29.9316C551.568 29.9316 558.209 28.3691 564.068 25.2441C570.025 22.0215 574.713 17.2852 578.131 11.0352C581.549 4.6875 583.258 -3.07617 583.258 -12.2559ZM772.955 -3.90625C772.955 -8.88672 772.174 -13.2812 770.611 -17.0898C769.146 -20.9961 766.51 -24.5117 762.701 -27.6367C758.99 -30.7617 753.814 -33.7402 747.174 -36.5723C740.631 -39.4043 732.33 -42.2852 722.271 -45.2148C711.725 -48.3398 702.203 -51.8066 693.707 -55.6152C685.211 -59.5215 677.936 -63.9648 671.881 -68.9453C665.826 -73.9258 661.188 -79.6387 657.965 -86.084C654.742 -92.5293 653.131 -99.9023 653.131 -108.203C653.131 -116.504 654.84 -124.17 658.258 -131.201C661.676 -138.232 666.559 -144.336 672.906 -149.512C679.352 -154.785 687.018 -158.887 695.904 -161.816C704.791 -164.746 714.703 -166.211 725.641 -166.211C741.656 -166.211 755.23 -163.135 766.363 -156.982C777.594 -150.928 786.139 -142.969 791.998 -133.105C797.857 -123.34 800.787 -112.891 800.787 -101.758H772.662C772.662 -109.766 770.953 -116.846 767.535 -122.998C764.117 -129.248 758.941 -134.131 752.008 -137.646C745.074 -141.26 736.285 -143.066 725.641 -143.066C715.582 -143.066 707.281 -141.553 700.738 -138.525C694.195 -135.498 689.312 -131.396 686.09 -126.221C682.965 -121.045 681.402 -115.137 681.402 -108.496C681.402 -104.004 682.33 -99.9023 684.186 -96.1914C686.139 -92.5781 689.117 -89.209 693.121 -86.084C697.223 -82.959 702.398 -80.0781 708.648 -77.4414C714.996 -74.8047 722.564 -72.2656 731.354 -69.8242C743.463 -66.4062 753.912 -62.5977 762.701 -58.3984C771.49 -54.1992 778.717 -49.4629 784.381 -44.1895C790.143 -39.0137 794.391 -33.1055 797.125 -26.4648C799.957 -19.9219 801.373 -12.5 801.373 -4.19922C801.373 4.49219 799.615 12.3535 796.1 19.3848C792.584 26.416 787.555 32.4219 781.012 37.4023C774.469 42.3828 766.607 46.2402 757.428 48.9746C748.346 51.6113 738.189 52.9297 726.959 52.9297C717.096 52.9297 707.379 51.5625 697.809 48.8281C688.336 46.0938 679.693 41.9922 671.881 36.5234C664.166 31.0547 657.965 24.3164 653.277 16.3086C648.688 8.20312 646.393 -1.17188 646.393 -11.8164H674.518C674.518 -4.49219 675.934 1.80664 678.766 7.08008C681.598 12.2559 685.455 16.5527 690.338 19.9707C695.318 23.3887 700.934 25.9277 707.184 27.5879C713.531 29.1504 720.123 29.9316 726.959 29.9316C736.822 29.9316 745.172 28.5645 752.008 25.8301C758.844 23.0957 764.02 19.1895 767.535 14.1113C771.148 9.0332 772.955 3.02734 772.955 -3.90625Z" fill="white"/>
<path d="M897.082 30.6641C903.527 30.6641 909.484 29.3457 914.953 26.709C920.422 24.0723 924.914 20.459 928.43 15.8691C931.945 11.1816 933.947 5.85938 934.436 -0.0976562H960.217C959.729 9.27734 956.555 18.0176 950.695 26.123C944.934 34.1309 937.365 40.625 927.99 45.6055C918.615 50.4883 908.312 52.9297 897.082 52.9297C885.168 52.9297 874.768 50.8301 865.881 46.6309C857.092 42.4316 849.768 36.6699 843.908 29.3457C838.146 22.0215 833.801 13.623 830.871 4.15039C828.039 -5.41992 826.623 -15.5273 826.623 -26.1719V-32.3242C826.623 -42.9688 828.039 -53.0273 830.871 -62.5C833.801 -72.0703 838.146 -80.5176 843.908 -87.8418C849.768 -95.166 857.092 -100.928 865.881 -105.127C874.768 -109.326 885.168 -111.426 897.082 -111.426C909.484 -111.426 920.324 -108.887 929.602 -103.809C938.879 -98.8281 946.154 -91.9922 951.428 -83.3008C956.799 -74.707 959.729 -64.9414 960.217 -54.0039H934.436C933.947 -60.5469 932.092 -66.4551 928.869 -71.7285C925.744 -77.002 921.447 -81.2012 915.979 -84.3262C910.607 -87.5488 904.309 -89.1602 897.082 -89.1602C888.781 -89.1602 881.799 -87.5 876.135 -84.1797C870.568 -80.957 866.125 -76.5625 862.805 -70.9961C859.582 -65.5273 857.238 -59.4238 855.773 -52.6855C854.406 -46.0449 853.723 -39.2578 853.723 -32.3242V-26.1719C853.723 -19.2383 854.406 -12.4023 855.773 -5.66406C857.141 1.07422 859.436 7.17773 862.658 12.6465C865.979 18.1152 870.422 22.5098 875.988 25.8301C881.652 29.0527 888.684 30.6641 897.082 30.6641ZM1082.97 7.95898C1082.97 4.05273 1082.09 0.439453 1080.33 -2.88086C1078.67 -6.29883 1075.21 -9.375 1069.93 -12.1094C1064.76 -14.9414 1056.95 -17.3828 1046.5 -19.4336C1037.71 -21.2891 1029.75 -23.4863 1022.62 -26.0254C1015.59 -28.5645 1009.58 -31.6406 1004.6 -35.2539C999.719 -38.8672 995.959 -43.1152 993.322 -47.998C990.686 -52.8809 989.367 -58.5938 989.367 -65.1367C989.367 -71.3867 990.734 -77.2949 993.469 -82.8613C996.301 -88.4277 1000.26 -93.3594 1005.33 -97.6562C1010.51 -101.953 1016.71 -105.322 1023.94 -107.764C1031.16 -110.205 1039.22 -111.426 1048.11 -111.426C1060.8 -111.426 1071.64 -109.18 1080.63 -104.688C1089.61 -100.195 1096.5 -94.1895 1101.28 -86.6699C1106.07 -79.248 1108.46 -70.9961 1108.46 -61.9141H1081.36C1081.36 -66.3086 1080.04 -70.5566 1077.4 -74.6582C1074.87 -78.8574 1071.11 -82.3242 1066.12 -85.0586C1061.24 -87.793 1055.24 -89.1602 1048.11 -89.1602C1040.59 -89.1602 1034.48 -87.9883 1029.8 -85.6445C1025.21 -83.3984 1021.84 -80.5176 1019.69 -77.002C1017.64 -73.4863 1016.61 -69.7754 1016.61 -65.8691C1016.61 -62.9395 1017.1 -60.3027 1018.08 -57.959C1019.15 -55.7129 1021.01 -53.6133 1023.64 -51.6602C1026.28 -49.8047 1029.99 -48.0469 1034.78 -46.3867C1039.56 -44.7266 1045.67 -43.0664 1053.09 -41.4062C1066.08 -38.4766 1076.77 -34.9609 1085.17 -30.8594C1093.57 -26.7578 1099.82 -21.7285 1103.92 -15.7715C1108.02 -9.81445 1110.07 -2.58789 1110.07 5.9082C1110.07 12.8418 1108.61 19.1895 1105.68 24.9512C1102.84 30.7129 1098.69 35.6934 1093.22 39.8926C1087.85 43.9941 1081.41 47.2168 1073.89 49.5605C1066.47 51.8066 1058.12 52.9297 1048.84 52.9297C1034.88 52.9297 1023.06 50.4395 1013.39 45.459C1003.72 40.4785 996.398 34.0332 991.418 26.123C986.438 18.2129 983.947 9.86328 983.947 1.07422H1011.19C1011.58 8.49609 1013.73 14.4043 1017.64 18.7988C1021.54 23.0957 1026.33 26.1719 1031.99 28.0273C1037.66 29.7852 1043.27 30.6641 1048.84 30.6641C1056.26 30.6641 1062.46 29.6875 1067.44 27.7344C1072.52 25.7812 1076.38 23.0957 1079.02 19.6777C1081.65 16.2598 1082.97 12.3535 1082.97 7.95898ZM1237.95 7.95898C1237.95 4.05273 1237.07 0.439453 1235.31 -2.88086C1233.65 -6.29883 1230.19 -9.375 1224.91 -12.1094C1219.74 -14.9414 1211.93 -17.3828 1201.48 -19.4336C1192.69 -21.2891 1184.73 -23.4863 1177.6 -26.0254C1170.57 -28.5645 1164.56 -31.6406 1159.58 -35.2539C1154.7 -38.8672 1150.94 -43.1152 1148.3 -47.998C1145.67 -52.8809 1144.35 -58.5938 1144.35 -65.1367C1144.35 -71.3867 1145.71 -77.2949 1148.45 -82.8613C1151.28 -88.4277 1155.24 -93.3594 1160.31 -97.6562C1165.49 -101.953 1171.69 -105.322 1178.92 -107.764C1186.14 -110.205 1194.2 -111.426 1203.09 -111.426C1215.78 -111.426 1226.62 -109.18 1235.61 -104.688C1244.59 -100.195 1251.48 -94.1895 1256.26 -86.6699C1261.05 -79.248 1263.44 -70.9961 1263.44 -61.9141H1236.34C1236.34 -66.3086 1235.02 -70.5566 1232.38 -74.6582C1229.85 -78.8574 1226.09 -82.3242 1221.11 -85.0586C1216.22 -87.793 1210.22 -89.1602 1203.09 -89.1602C1195.57 -89.1602 1189.46 -87.9883 1184.78 -85.6445C1180.19 -83.3984 1176.82 -80.5176 1174.67 -77.002C1172.62 -73.4863 1171.59 -69.7754 1171.59 -65.8691C1171.59 -62.9395 1172.08 -60.3027 1173.06 -57.959C1174.13 -55.7129 1175.99 -53.6133 1178.62 -51.6602C1181.26 -49.8047 1184.97 -48.0469 1189.76 -46.3867C1194.54 -44.7266 1200.65 -43.0664 1208.07 -41.4062C1221.06 -38.4766 1231.75 -34.9609 1240.15 -30.8594C1248.55 -26.7578 1254.8 -21.7285 1258.9 -15.7715C1263 -9.81445 1265.05 -2.58789 1265.05 5.9082C1265.05 12.8418 1263.59 19.1895 1260.66 24.9512C1257.82 30.7129 1253.67 35.6934 1248.21 39.8926C1242.83 43.9941 1236.39 47.2168 1228.87 49.5605C1221.45 51.8066 1213.1 52.9297 1203.82 52.9297C1189.86 52.9297 1178.04 50.4395 1168.37 45.459C1158.7 40.4785 1151.38 34.0332 1146.4 26.123C1141.42 18.2129 1138.93 9.86328 1138.93 1.07422H1166.17C1166.56 8.49609 1168.71 14.4043 1172.62 18.7988C1176.53 23.0957 1181.31 26.1719 1186.97 28.0273C1192.64 29.7852 1198.25 30.6641 1203.82 30.6641C1211.24 30.6641 1217.44 29.6875 1222.42 27.7344C1227.5 25.7812 1231.36 23.0957 1234 19.6777C1236.63 16.2598 1237.95 12.3535 1237.95 7.95898Z" fill="white"/>
<path d="M34.5703 232.719L89.9414 339.799L145.459 232.719H177.539L104.004 366.312V446H75.7324V366.312L2.19727 232.719H34.5703ZM235.254 232.719V446H206.982V232.719H235.254ZM316.992 232.719V446H288.721V232.719H316.992ZM501.123 423.734V446H361.523V426.518L431.396 348.734C439.99 339.164 446.631 331.059 451.318 324.418C456.104 317.68 459.424 311.674 461.279 306.4C463.232 301.029 464.209 295.561 464.209 289.994C464.209 282.963 462.744 276.615 459.814 270.951C456.982 265.189 452.783 260.6 447.217 257.182C441.65 253.764 434.912 252.055 427.002 252.055C417.529 252.055 409.619 253.91 403.271 257.621C397.021 261.234 392.334 266.312 389.209 272.855C386.084 279.398 384.521 286.918 384.521 295.414H357.422C357.422 283.402 360.059 272.416 365.332 262.455C370.605 252.494 378.418 244.584 388.77 238.725C399.121 232.768 411.865 229.789 427.002 229.789C440.479 229.789 452.002 232.182 461.572 236.967C471.143 241.654 478.467 248.295 483.545 256.889C488.721 265.385 491.309 275.346 491.309 286.771C491.309 293.021 490.234 299.369 488.086 305.814C486.035 312.162 483.154 318.51 479.443 324.857C475.83 331.205 471.582 337.455 466.699 343.607C461.914 349.76 456.787 355.814 451.318 361.771L394.189 423.734H501.123Z" fill="white"/>
<path d="M664.062 329.418V352.416H548.633V329.418H664.062ZM553.027 237.719V451H524.756V237.719H553.027ZM688.672 237.719V451H660.547V237.719H688.672ZM813.33 237.719V451H785.498V237.719H813.33ZM881.885 237.719V260.863H717.09V237.719H881.885ZM922.461 237.719H949.854L1019.73 411.596L1089.45 237.719H1116.99L1030.27 451H1008.89L922.461 237.719ZM913.525 237.719H937.695L941.65 367.797V451H913.525V237.719ZM1101.61 237.719H1125.78V451H1097.66V367.797L1101.61 237.719ZM1304.79 428.002V451H1198.14V428.002H1304.79ZM1203.71 237.719V451H1175.44V237.719H1203.71Z" fill="white"/>
</g>
<defs>
<clipPath id="clip0_101_9">
<rect width="1140" height="290" fill="white"/>
</clipPath>
</defs>
</svg>
